<svg id="visual" viewBox="0 0 960 540" width="960" height="540" xmlns="http://www.w3.org/2000/svg" xmlns:xlink="http://www.w3.org/1999/xlink" version="1.1"><rect x="0" y="0" width="960" height="540" fill="#1B1E24"></rect><defs><linearGradient id="grad1_0" x1="43.8%" y1="100%" x2="100%" y2="0%"><stop offset="14.444444444444446%" stop-color="#1b1e24" stop-opacity="1"></stop><stop offset="85.55555555555554%" stop-color="#1b1e24" stop-opacity="1"></stop></linearGradient></defs><defs><linearGradient id="grad2_0" x1="0%" y1="100%" x2="56.3%" y2="0%"><stop offset="14.444444444444446%" stop-color="#1b1e24" stop-opacity="1"></stop><stop offset="85.55555555555554%" stop-color="#1b1e24" stop-opacity="1"></stop></linearGradient></defs><g transform="translate(960, 540)"><path d="M-486 0C-494 -50.2 -502 -100.3 -463.6 -124.2C-425.3 -148.1 -340.6 -145.7 -323 -186.5C-305.5 -227.3 -355.1 -311.1 -343.7 -343.7C-332.2 -376.2 -259.6 -357.3 -215.5 -373.3C-171.4 -389.2 -155.7 -440 -124.5 -464.6C-93.3 -489.2 -46.7 -487.6 0 -486L0 0Z" fill="#00C299"></path></g><g transform="translate(0, 0)"><path d="M486 0C469 36.6 451.9 73.3 449.2 120.4C446.4 167.4 457.8 224.9 420.9 243C384 261.1 298.6 239.9 258.1 258.1C217.6 276.3 221.8 334 199.5 345.5C177.2 357.1 128.3 322.4 90.6 338.1C52.9 353.8 26.5 419.9 0 486L0 0Z" fill="#00C299"></path></g></svg>