<svg id="visual" viewBox="0 0 960 540" width="960" height="540" xmlns="http://www.w3.org/2000/svg" xmlns:xlink="http://www.w3.org/1999/xlink" version="1.1"><rect x="0" y="0" width="960" height="540" fill="#1B1E24"></rect><defs><linearGradient id="grad1_0" x1="43.8%" y1="100%" x2="100%" y2="0%"><stop offset="14.444444444444446%" stop-color="#1b1e24" stop-opacity="1"></stop><stop offset="85.55555555555554%" stop-color="#1b1e24" stop-opacity="1"></stop></linearGradient></defs><defs><linearGradient id="grad2_0" x1="0%" y1="100%" x2="56.3%" y2="0%"><stop offset="14.444444444444446%" stop-color="#1b1e24" stop-opacity="1"></stop><stop offset="85.55555555555554%" stop-color="#1b1e24" stop-opacity="1"></stop></linearGradient></defs><g transform="translate(960, 540)"><path d="M-486 0C-481.4 -33.7 -476.8 -67.5 -473.8 -108.1C-470.8 -148.8 -469.3 -196.3 -420.8 -202.6C-372.2 -208.9 -276.6 -173.9 -259.6 -207C-242.5 -240.1 -304 -341.3 -296.8 -372.2C-289.6 -403 -213.6 -363.5 -168.3 -349.6C-123.1 -335.7 -108.4 -347.4 -85.4 -374.4C-62.5 -401.4 -31.2 -443.7 0 -486L0 0Z" fill="#FFD155"></path></g><g transform="translate(0, 0)"><path d="M486 0C492.9 41.6 499.9 83.1 468.9 107C438 130.9 369.2 137.1 346 166.6C322.7 196.1 344.9 248.8 319.8 255C294.6 261.2 222.1 220.8 203.9 255.7C185.7 290.6 221.7 400.8 210.9 437.9C200 475 142.2 439 99.2 434.8C56.3 430.7 28.1 458.3 0 486L0 0Z" fill="#FFD155"></path></g></svg>