<svg id="visual" viewBox="0 0 960 540" width="960" height="540" xmlns="http://www.w3.org/2000/svg" xmlns:xlink="http://www.w3.org/1999/xlink" version="1.1"><rect x="0" y="0" width="960" height="540" fill="#1B1E24"></rect><defs><linearGradient id="grad1_0" x1="43.8%" y1="100%" x2="100%" y2="0%"><stop offset="14.444444444444446%" stop-color="#1b1e24" stop-opacity="1"></stop><stop offset="85.55555555555554%" stop-color="#1b1e24" stop-opacity="1"></stop></linearGradient></defs><defs><linearGradient id="grad2_0" x1="0%" y1="100%" x2="56.3%" y2="0%"><stop offset="14.444444444444446%" stop-color="#1b1e24" stop-opacity="1"></stop><stop offset="85.55555555555554%" stop-color="#1b1e24" stop-opacity="1"></stop></linearGradient></defs><g transform="translate(960, 540)"><path d="M-486 0C-374.3 -18.4 -262.7 -36.9 -253 -82.2C-243.3 -127.5 -335.6 -199.7 -358.4 -260.4C-381.2 -321.1 -334.6 -370.4 -285.7 -393.2C-236.7 -415.9 -185.5 -412.2 -137.5 -423.2C-89.5 -434.3 -44.8 -460.1 0 -486L0 0Z" fill="#7269E3"></path></g><g transform="translate(0, 0)"><path d="M486 0C382.8 21.2 279.5 42.3 261.5 85C243.5 127.6 310.8 191.7 317.1 230.4C323.5 269.1 268.9 282.5 234.5 322.8C200.1 363.1 185.9 430.5 150.2 462.2C114.5 493.9 57.2 490 0 486L0 0Z" fill="#7269E3"></path></g></svg>