<svg id="visual" viewBox="0 0 960 540" width="960" height="540" xmlns="http://www.w3.org/2000/svg" xmlns:xlink="http://www.w3.org/1999/xlink" version="1.1"><rect x="0" y="0" width="960" height="540" fill="#1B1E24"></rect><defs><linearGradient id="grad1_0" x1="43.8%" y1="100%" x2="100%" y2="0%"><stop offset="14.444444444444446%" stop-color="#1b1e24" stop-opacity="1"></stop><stop offset="85.55555555555554%" stop-color="#1b1e24" stop-opacity="1"></stop></linearGradient></defs><defs><linearGradient id="grad2_0" x1="0%" y1="100%" x2="56.3%" y2="0%"><stop offset="14.444444444444446%" stop-color="#1b1e24" stop-opacity="1"></stop><stop offset="85.55555555555554%" stop-color="#1b1e24" stop-opacity="1"></stop></linearGradient></defs><g transform="translate(960, 540)"><path d="M-486 0C-408.4 -22.4 -330.8 -44.7 -328.4 -88C-326.1 -131.3 -399 -195.5 -398.4 -230C-397.8 -264.5 -323.7 -269.2 -277.2 -277.2C-230.7 -285.2 -211.7 -296.5 -193.5 -335.2C-175.3 -373.8 -157.9 -439.7 -125.8 -469.4C-93.7 -499.1 -46.8 -492.6 0 -486L0 0Z" fill="#FCC699"></path></g><g transform="translate(0, 0)"><path d="M486 0C495.6 49.1 505.1 98.1 469.4 125.8C433.7 153.4 352.8 159.6 321.3 185.5C289.8 211.4 307.9 256.9 299.8 299.8C291.7 342.7 257.6 383 214.5 371.5C171.4 360 119.5 296.7 82.3 307.2C45.1 317.6 22.5 401.8 0 486L0 0Z" fill="#FCC699"></path></g></svg>